<svg id="圖層_1" data-name="圖層 1" xmlns="http://www.w3.org/2000/svg" viewBox="0 0 597 591"><defs><style>.cls-1{fill:none;}</style></defs><title>a6-2</title><path class="cls-1" d="M132,136c1.89,10.73,9.08,20.93,12.07,31.58,2.15,7.66,3.47,15.58,6.61,22.88,7.56,17.56,28.18,20.67,45.18,20.59a241.41,241.41,0,0,0,27.38-2.14c22.64-2.73,51.27-3.56,71.51,8.55,5.91,3.54,14,9.21,16.58,15.88,1.24,3.18,1.11,6.71.85,10.11-.43,5.63-1.18,11.33-3.41,16.52-4.62,10.8-17.8,18.4-28.73,21-10.15,2.46-20.81,2.83-31.07,4.84a169.89,169.89,0,0,0-33.35,9.86,48.71,48.71,0,0,0-18.29,13.73c-5.91,7-12.79,14.44-8.05,24.11,4.54,9.26,14.34,16.43,23.67,19.63,11.29,3.85,22,4.05,33.81,5.93,18.79,3,35,2.05,53.29,7.46,13.49,4,37.36,12.63,43.54,26.8,6.05,13.86,0,26.58-9.83,37.92-6.47,7.48-15.44,15.5-22.55,22.38-6.2,6-11.08,11.58-10.44,20.18,1.07,14.46,16.35,16.72,28,17.4s15.31.76,27.06,1.5c9.72.6,27.92,0,39.63-.59"/></svg>